<?xml version="1.0" encoding="UTF-8" standalone="no"?>
<!-- Created with Inkscape (http://www.inkscape.org/) -->

<svg
   xmlns:dc="http://purl.org/dc/elements/1.1/"
   xmlns:cc="http://creativecommons.org/ns#"
   xmlns:rdf="http://www.w3.org/1999/02/22-rdf-syntax-ns#"
   xmlns:svg="http://www.w3.org/2000/svg"
   xmlns="http://www.w3.org/2000/svg"
   xmlns:sodipodi="http://sodipodi.sourceforge.net/DTD/sodipodi-0.dtd"
   xmlns:inkscape="http://www.inkscape.org/namespaces/inkscape"
   width="50"
   height="32"
   viewBox="0 0 50 32"
   id="svg2"
   version="1.1"
   inkscape:version="0.91 r13725"
   sodipodi:docname="lotus-icon.svg">
  <defs
     id="defs4" />
  <sodipodi:namedview
     id="base"
     pagecolor="#ffffff"
     bordercolor="#666666"
     borderopacity="1.0"
     inkscape:pageopacity="0.0"
     inkscape:pageshadow="2"
     inkscape:zoom="4"
     inkscape:cx="49.139908"
     inkscape:cy="73.509369"
     inkscape:document-units="px"
     inkscape:current-layer="layer1"
     showgrid="false"
     units="px"
     inkscape:window-width="1920"
     inkscape:window-height="1137"
     inkscape:window-x="-8"
     inkscape:window-y="-8"
     inkscape:window-maximized="1" />
  <metadata
     id="metadata7">
    <rdf:RDF>
      <cc:Work
         rdf:about="">
        <dc:format>image/svg+xml</dc:format>
        <dc:type
           rdf:resource="http://purl.org/dc/dcmitype/StillImage" />
        <dc:title></dc:title>
      </cc:Work>
    </rdf:RDF>
  </metadata>
  <g
     inkscape:label="Layer 1"
     inkscape:groupmode="layer"
     id="layer1"
     transform="translate(0,-1020.3622)">
    <g
       id="g4147"
       transform="matrix(0.55032385,0,0,0.55032385,-3.1527247,485.70143)">
      <path
         style="fill:#a3dbf4"
         d="m 47.536838,1026.8742 c -12.902655,-0.6987 -22.644416,-3.9209 -24.787697,-8.1988 -0.345706,-0.69 -0.374314,-0.8545 -0.314564,-1.8087 0.04856,-0.7756 0.149568,-1.1944 0.386755,-1.6037 0.31894,-0.5503 0.323867,-0.5527 0.757843,-0.3728 0.406266,0.1684 0.436824,0.2261 0.436922,0.8254 1.35e-4,0.9061 0.602943,2.1224 1.494685,3.0159 5.725992,5.7375 24.771821,8.2345 39.834698,5.2226 5.126186,-1.025 9.004574,-2.5018 11.448526,-4.3594 1.713222,-1.3021 2.466571,-2.5 2.456476,-3.9062 -0.0032,-0.4519 -0.09306,-1.0659 -0.199585,-1.3645 -0.106525,-0.2987 -0.194594,-0.5511 -0.195707,-0.5611 -0.0011,-0.01 0.118941,-0.05 0.266786,-0.089 0.147845,-0.039 0.26881,-0.019 0.26881,0.044 0,0.063 0.18381,0.3169 0.408469,0.5641 0.698084,0.7683 1.120386,1.802 1.120386,2.7426 0,4.6957 -9.3436,8.6333 -23.03363,9.7069 -2.669714,0.2093 -7.812553,0.2804 -10.349173,0.1431 z m 1.915269,-5.1185 c 0.868591,-0.024 2.289923,-0.024 3.158514,0 0.868591,0.024 0.157926,0.043 -1.579257,0.043 -1.737183,0 -2.447848,-0.019 -1.579257,-0.043 z m -4.032145,-0.1316 c 0.203287,-0.031 0.535939,-0.031 0.739227,0 0.203287,0.031 0.03696,0.057 -0.369614,0.057 -0.406574,0 -0.5729,-0.025 -0.369613,-0.057 z m 10.61983,-2e-4 c 0.204304,-0.031 0.506715,-0.03 0.672025,0 0.16531,0.032 -0.0019,0.058 -0.371462,0.057 -0.369613,0 -0.504866,-0.027 -0.300563,-0.059 z m -12.434295,-0.1341 c 0.166326,-0.032 0.438495,-0.032 0.604821,0 0.166326,0.032 0.03024,0.059 -0.302411,0.059 -0.332652,0 -0.468736,-0.026 -0.30241,-0.059 z m 14.51729,-3e-4 c 0.167187,-0.033 0.409116,-0.031 0.537619,0 0.128503,0.034 -0.0083,0.061 -0.303978,0.059 -0.295691,0 -0.400829,-0.029 -0.233641,-0.062 z m -15.994177,-0.1357 c 0.167188,-0.033 0.409117,-0.031 0.53762,0 0.128503,0.034 -0.0083,0.061 -0.303978,0.059 -0.295691,0 -0.400829,-0.029 -0.233642,-0.062 z m 17.406418,0 c 0.130772,-0.034 0.312218,-0.032 0.403215,0.01 0.091,0.037 -0.016,0.065 -0.237767,0.062 -0.221768,0 -0.29622,-0.033 -0.165448,-0.068 z M 40.98716,1021.22 c 0.130772,-0.034 0.312218,-0.032 0.403214,0 0.091,0.037 -0.016,0.065 -0.237766,0.063 -0.221768,0 -0.29622,-0.033 -0.165448,-0.068 z m 19.757512,0 c 0.130771,-0.034 0.312218,-0.032 0.403214,0 0.091,0.037 -0.016,0.065 -0.237766,0.063 -0.221768,0 -0.29622,-0.033 -0.165448,-0.068 z m -20.969713,-0.1352 c 0.129364,-0.034 0.341052,-0.034 0.470417,0 0.129364,0.034 0.02352,0.062 -0.235209,0.062 -0.258729,0 -0.364573,-0.028 -0.235208,-0.062 z m 21.975191,0 c 0.0924,-0.038 0.243609,-0.038 0.336012,0 0.0924,0.038 0.0168,0.068 -0.168006,0.068 -0.184806,0 -0.260409,-0.031 -0.168006,-0.068 z m -22.779063,-0.1399 c 0.130772,-0.034 0.312219,-0.032 0.403215,0 0.091,0.037 -0.016,0.065 -0.237766,0.063 -0.221768,0 -0.296221,-0.033 -0.165449,-0.068 z m 23.789657,0 c 0.130772,-0.034 0.312219,-0.032 0.403215,0 0.091,0.037 -0.016,0.065 -0.237767,0.063 -0.221767,0 -0.29622,-0.033 -0.165448,-0.068 z m -24.665846,-0.1316 c 0.0924,-0.038 0.243609,-0.038 0.336012,0 0.0924,0.038 0.0168,0.068 -0.168006,0.068 -0.184807,0 -0.260409,-0.031 -0.168006,-0.068 z m 25.60668,0 c 0.130772,-0.034 0.312218,-0.032 0.403215,0 0.091,0.037 -0.016,0.065 -0.237767,0.063 -0.221768,0 -0.29622,-0.033 -0.165448,-0.068 z m -26.270304,-0.1344 c 0.09702,-0.039 0.212949,-0.034 0.25761,0.011 0.04466,0.045 -0.03472,0.077 -0.176406,0.071 -0.156575,-0.01 -0.188423,-0.039 -0.0812,-0.082 z m 10.676785,-0.01 c 0.425055,-0.027 1.1206,-0.027 1.545655,0 0.425056,0.027 0.07728,0.049 -0.772827,0.049 -0.850111,0 -1.197884,-0.022 -0.772828,-0.049 z m 4.23902,-3e-4 c 0.464913,-0.027 1.190699,-0.026 1.612858,5e-4 0.422157,0.027 0.04177,0.049 -0.845298,0.048 -0.887072,-3e-4 -1.232475,-0.022 -0.76756,-0.049 z m 12.091168,0.011 c 0.0924,-0.038 0.243609,-0.038 0.336012,0 0.0924,0.038 0.0168,0.069 -0.168006,0.069 -0.184807,0 -0.260409,-0.031 -0.168006,-0.069 z m -27.821802,-0.1357 c 0.0924,-0.038 0.243609,-0.038 0.336012,0 0.0924,0.038 0.0168,0.068 -0.168006,0.068 -0.184807,0 -0.26041,-0.031 -0.168006,-0.068 z m 8.67096,-0.01 c 0.204304,-0.031 0.506714,-0.03 0.672024,0 0.16531,0.032 -0.0019,0.058 -0.371461,0.057 -0.369613,0 -0.504866,-0.027 -0.300563,-0.059 z m 10.886792,0 c 0.204304,-0.031 0.506715,-0.03 0.672024,0 0.16531,0.032 -0.0019,0.058 -0.371461,0.057 -0.369613,0 -0.504866,-0.027 -0.300563,-0.059 z m 9.238485,-0.038 c 0.184807,-0.06 0.456977,-0.1087 0.604822,-0.1087 0.212853,0 0.198863,0.023 -0.0672,0.1087 -0.184806,0.06 -0.456976,0.1087 -0.604821,0.1087 -0.212853,0 -0.198863,-0.023 0.0672,-0.1087 z m -21.60373,-0.097 c 0.204303,-0.031 0.506714,-0.03 0.672024,0 0.16531,0.032 -0.0019,0.058 -0.371461,0.057 -0.369614,0 -0.504867,-0.027 -0.300563,-0.059 z m 14.045025,0 c 0.167187,-0.032 0.409116,-0.031 0.537619,0 0.128503,0.034 -0.0083,0.06 -0.303978,0.059 -0.29569,0 -0.400829,-0.029 -0.233641,-0.062 z m -22.438775,-0.1324 c 0.09702,-0.039 0.212948,-0.034 0.257609,0.011 0.04466,0.045 -0.03472,0.077 -0.176406,0.071 -0.156575,-0.01 -0.188422,-0.039 -0.0812,-0.082 z m 6.916006,0 c 0.130772,-0.034 0.312219,-0.032 0.403215,0 0.091,0.037 -0.016,0.065 -0.237766,0.063 -0.221768,0 -0.296221,-0.033 -0.165449,-0.068 z m 17.069415,0 c 0.130772,-0.034 0.312219,-0.032 0.403215,0 0.091,0.037 -0.016,0.065 -0.237767,0.063 -0.221768,0 -0.29622,-0.033 -0.165448,-0.068 z m 7.221703,-0.042 c 0.184806,-0.06 0.456976,-0.1087 0.604821,-0.1087 0.212853,0 0.198863,0.023 -0.0672,0.1087 -0.184807,0.06 -0.456976,0.1086 -0.604822,0.1086 -0.212853,0 -0.198863,-0.023 0.0672,-0.1086 z m -31.744744,-0.093 c 0.09702,-0.039 0.212947,-0.034 0.25761,0.011 0.04466,0.045 -0.03472,0.077 -0.176406,0.071 -0.156575,-0.01 -0.188423,-0.039 -0.0812,-0.082 z m 6.378388,0 c 0.130771,-0.034 0.312218,-0.032 0.403214,0 0.091,0.037 -0.016,0.065 -0.237766,0.063 -0.221768,0 -0.29622,-0.033 -0.165448,-0.068 z m 19.217334,5e-4 c 0.129365,-0.034 0.341052,-0.034 0.470417,0 0.129365,0.034 0.02352,0.062 -0.235208,0.062 -0.25873,0 -0.364574,-0.028 -0.235209,-0.062 z m -26.133341,-0.1349 c 0.09702,-0.039 0.212947,-0.034 0.25761,0.011 0.04466,0.045 -0.03472,0.077 -0.176407,0.071 -0.156575,-0.01 -0.188422,-0.039 -0.0812,-0.082 z m 5.905413,0 c 0.0924,-0.038 0.243608,-0.038 0.336012,0 0.0924,0.038 0.0168,0.068 -0.168006,0.068 -0.184807,0 -0.26041,-0.031 -0.168006,-0.068 z m 21.235964,0 c 0.0924,-0.038 0.243609,-0.038 0.336013,0 0.0924,0.038 0.0168,0.068 -0.168006,0.068 -0.184807,0 -0.26041,-0.031 -0.168007,-0.068 z m 6.283427,-0.046 c 0.147845,-0.064 0.359533,-0.1167 0.470417,-0.1167 0.127077,0 0.102233,0.043 -0.0672,0.1167 -0.147845,0.064 -0.359533,0.1166 -0.470417,0.1166 -0.127077,0 -0.102233,-0.043 0.0672,-0.1166 z m -28.325821,-0.09 c 0.0924,-0.038 0.243609,-0.038 0.336013,0 0.0924,0.038 0.0168,0.068 -0.168006,0.068 -0.184807,0 -0.26041,-0.031 -0.168007,-0.068 z m 22.918584,0 c 0.130772,-0.034 0.312218,-0.032 0.403214,0.01 0.091,0.037 -0.016,0.065 -0.237766,0.062 -0.221768,0 -0.29622,-0.033 -0.165448,-0.068 z m -23.716612,-0.1344 c 0.09702,-0.039 0.212948,-0.034 0.257609,0.011 0.04466,0.045 -0.03472,0.077 -0.176406,0.071 -0.156575,-0.01 -0.188422,-0.039 -0.0812,-0.082 z m 24.730491,0 c 0.09702,-0.039 0.212948,-0.034 0.257609,0.011 0.04466,0.045 -0.03472,0.077 -0.176406,0.071 -0.156575,-0.01 -0.188422,-0.039 -0.0812,-0.082 z m 5.401394,-0.043 c 0.110884,-0.072 0.292331,-0.1282 0.403215,-0.1241 0.132934,0 0.110042,0.047 -0.0672,0.1241 -0.369491,0.1604 -0.5817,0.1604 -0.336012,0 z m -35.911293,-0.093 c 0.09702,-0.039 0.212947,-0.034 0.257609,0.011 0.04466,0.045 -0.03472,0.077 -0.176406,0.071 -0.156575,-0.01 -0.188422,-0.039 -0.0812,-0.082 z m 5.098983,0 c 0.0924,-0.038 0.243609,-0.038 0.336012,0 0.0924,0.038 0.0168,0.068 -0.168006,0.068 -0.184806,0 -0.260409,-0.031 -0.168006,-0.068 z m 25.940135,0 c 0.0924,-0.038 0.243608,-0.038 0.336012,0 0.0924,0.038 0.0168,0.068 -0.168006,0.068 -0.184807,0 -0.26041,-0.031 -0.168006,-0.068 z m 0.907232,-0.1815 c 0.147846,-0.064 0.389774,-0.1149 0.53762,-0.1127 0.216094,0 0.202915,0.025 -0.0672,0.1127 -0.459553,0.1486 -0.81291,0.1486 -0.470417,0 z m -28.191415,-0.09 c 0.0924,-0.038 0.243609,-0.038 0.336012,0 0.0924,0.038 0.0168,0.068 -0.168006,0.068 -0.184807,0 -0.26041,-0.031 -0.168006,-0.068 z m -5.981016,-0.516 c -0.388094,-0.1825 -0.705625,-0.3617 -0.705625,-0.3984 0,-0.059 1.462001,0.5661 1.601658,0.6851 0.173075,0.1475 -0.282817,0 -0.896033,-0.2867 z m 4.376558,0.106 c 0.09702,-0.039 0.212947,-0.034 0.25761,0.011 0.04466,0.045 -0.03472,0.077 -0.176407,0.071 -0.156575,-0.01 -0.188422,-0.039 -0.0812,-0.082 z m 31.853947,0 c 0.09702,-0.039 0.212949,-0.034 0.25761,0.011 0.04466,0.045 -0.03472,0.077 -0.176406,0.071 -0.156575,-0.01 -0.188422,-0.039 -0.0812,-0.082 z m 4.191751,-0.043 c 0.110884,-0.072 0.26209,-0.1315 0.336012,-0.1315 0.07392,0 0.04368,0.059 -0.0672,0.1315 -0.110884,0.072 -0.262089,0.1316 -0.336012,0.1316 -0.07392,0 -0.04368,-0.059 0.0672,-0.1316 z m -3.654131,-0.093 c 0.09702,-0.039 0.212948,-0.034 0.257609,0.011 0.04466,0.045 -0.03472,0.077 -0.176406,0.071 -0.156575,-0.01 -0.188422,-0.039 -0.0812,-0.082 z m 4.46056,-0.2188 c 0,-0.031 0.349255,-0.2748 0.776123,-0.5408 0.86308,-0.538 1.122783,-0.7898 1.431423,-1.3875 0.139761,-0.2707 0.210363,-0.3264 0.210914,-0.1664 0.0012,0.3611 -0.974055,1.3578 -1.741274,1.7795 -0.372452,0.2047 -0.677186,0.3466 -0.677186,0.3152 z m -38.842999,-0.2314 c -0.110884,-0.072 -0.141125,-0.1316 -0.0672,-0.1316 0.07392,0 0.225128,0.059 0.336012,0.1316 0.110884,0.072 0.141125,0.1316 0.0672,0.1316 -0.07392,0 -0.225128,-0.059 -0.336012,-0.1316 z m 35.751688,0 c 0.110884,-0.072 0.26209,-0.1316 0.336012,-0.1316 0.07392,0 0.04368,0.059 -0.0672,0.1316 -0.110884,0.072 -0.26209,0.1316 -0.336012,0.1316 -0.07392,0 -0.04368,-0.059 0.0672,-0.1316 z m -39.700427,-0.4245 c -0.65121,-0.4356 -1.297143,-1.2427 -1.287789,-1.609 0.0029,-0.1133 0.08523,-0.023 0.182971,0.2012 0.210505,0.4823 0.751234,1.0468 1.376709,1.4372 0.395915,0.2471 0.548396,0.3951 0.406972,0.3951 -0.02429,0 -0.329776,-0.191 -0.678863,-0.4245 z m 3.276715,0.1531 c -0.110884,-0.072 -0.141125,-0.1316 -0.0672,-0.1316 0.07392,0 0.225128,0.059 0.336012,0.1316 0.110884,0.072 0.141125,0.1315 0.0672,0.1315 -0.07392,0 -0.225128,-0.059 -0.336012,-0.1315 z m 37.364546,-0.049 c 0,-0.027 0.40486,-0.2505 0.899687,-0.4965 0.945452,-0.47 2.057219,-1.3947 2.057219,-1.7111 0,-0.1025 0.06261,-0.1863 0.139134,-0.1863 0.216088,0 -0.05095,0.4104 -0.632512,0.9722 -0.613554,0.5926 -2.463528,1.6603 -2.463528,1.4217 z m -37.968416,-0.2206 c -0.04709,-0.077 0.0069,-0.1 0.126472,-0.053 0.232846,0.09 0.275448,0.1875 0.08212,0.1875 -0.06956,0 -0.163425,-0.06 -0.208588,-0.1341 z m -0.471369,-0.2731 c -0.121137,-0.079 -0.137715,-0.1324 -0.04153,-0.1336 0.08804,0 0.197454,0.059 0.243141,0.1336 0.103128,0.1685 0.0566,0.1685 -0.201608,0 z m -0.988709,-0.617 c -0.343282,-0.2647 -0.624149,-0.509 -0.624149,-0.5429 0,-0.034 0.136085,-0.061 0.302411,-0.06 0.244542,0 0.263831,0.027 0.100804,0.1337 -0.110884,0.072 -0.141125,0.135 -0.0672,0.1392 0.141515,0.01 1.120453,0.8109 0.988686,0.8109 -0.04202,0 -0.357266,-0.2166 -0.700549,-0.4813 z m 1.895942,-0.2872 c 0.0924,-0.038 0.243609,-0.038 0.336012,0 0.0924,0.038 0.0168,0.068 -0.168006,0.068 -0.184807,0 -0.260409,-0.031 -0.168006,-0.068 z m 4.77393,0 c 0.130772,-0.034 0.312218,-0.032 0.403214,0 0.091,0.037 -0.016,0.065 -0.237766,0.063 -0.221768,0 -0.29622,-0.033 -0.165448,-0.068 z m 1.282688,-0.1344 c 0.09702,-0.039 0.212949,-0.034 0.25761,0.011 0.04466,0.045 -0.03472,0.077 -0.176406,0.071 -0.156575,-0.01 -0.188423,-0.039 -0.0812,-0.082 z m 0.940834,-0.1357 c 0.09702,-0.039 0.212948,-0.034 0.25761,0.011 0.04466,0.045 -0.03472,0.077 -0.176407,0.071 -0.156574,-0.01 -0.188422,-0.039 -0.0812,-0.082 z m 23.582207,0 c 0.130772,-0.034 0.312219,-0.032 0.403215,0 0.091,0.037 -0.016,0.065 -0.237767,0.063 -0.221767,0 -0.29622,-0.033 -0.165448,-0.068 z m 4.163993,6e-4 c 0.129364,-0.034 0.341052,-0.034 0.470416,0 0.129365,0.034 0.02352,0.062 -0.235208,0.062 -0.258729,0 -0.364573,-0.028 -0.235208,-0.062 z m -5.642446,-0.1363 c 0.130772,-0.034 0.312218,-0.032 0.403214,0.01 0.091,0.037 -0.016,0.065 -0.237766,0.062 -0.221768,0 -0.29622,-0.033 -0.165448,-0.068 z m 7.456911,0 c 0.0924,-0.038 0.243609,-0.038 0.336012,0 0.0924,0.038 0.0168,0.069 -0.168006,0.069 -0.184807,0 -0.260409,-0.031 -0.168006,-0.069 z m -8.3247,-0.1386 c 0.09702,-0.039 0.212948,-0.034 0.25761,0.011 0.04466,0.045 -0.03472,0.077 -0.176407,0.071 -0.156575,-0.01 -0.188422,-0.039 -0.0812,-0.082 z m 9.408339,0 c 0.09702,-0.039 0.212948,-0.034 0.25761,0.011 0.04466,0.045 -0.03472,0.077 -0.176407,0.071 -0.156575,-0.01 -0.188422,-0.039 -0.0812,-0.082 z m 4.471172,-0.2579 c 0.0065,-0.1581 0.0383,-0.1903 0.0812,-0.082 0.03883,0.098 0.03405,0.2151 -0.0106,0.2602 -0.04466,0.045 -0.07643,-0.035 -0.07059,-0.1782 z m -2.051885,-0.1493 c 0.09702,-0.039 0.212948,-0.034 0.25761,0.011 0.04466,0.045 -0.03472,0.077 -0.176407,0.071 -0.156574,-0.01 -0.188422,-0.039 -0.0812,-0.082 z m -9.549577,-1.4963 c 0.167188,-0.032 0.409116,-0.031 0.53762,0 0.128503,0.034 -0.0083,0.06 -0.303979,0.059 -0.29569,0 -0.400828,-0.029 -0.233641,-0.062 z m 3.627364,3e-4 c 0.166326,-0.032 0.438496,-0.032 0.604822,0 0.166326,0.032 0.03024,0.059 -0.302411,0.059 -0.332652,0 -0.468737,-0.027 -0.302411,-0.059 z m -30.373927,-0.1359 c 0.167187,-0.033 0.409116,-0.031 0.537619,0 0.128503,0.034 -0.0083,0.061 -0.303978,0.059 -0.295691,0 -0.400829,-0.029 -0.233641,-0.062 z m 3.360121,0 c 0.167187,-0.033 0.409116,-0.031 0.537619,0 0.128503,0.034 -0.0083,0.061 -0.303978,0.059 -0.295691,0 -0.400829,-0.029 -0.233641,-0.062 z m 22.040827,0.01 c 0.0924,-0.038 0.243608,-0.038 0.336012,0 0.0924,0.038 0.0168,0.068 -0.168006,0.068 -0.184807,0 -0.26041,-0.031 -0.168006,-0.068 z m 6.720242,0 c 0.0924,-0.038 0.243608,-0.038 0.336012,0 0.0924,0.038 0.0168,0.068 -0.168006,0.068 -0.184807,0 -0.26041,-0.031 -0.168006,-0.068 z m -33.727215,-0.1386 c 0.09702,-0.039 0.212947,-0.034 0.25761,0.011 0.04466,0.045 -0.03472,0.077 -0.176407,0.071 -0.156575,-0.01 -0.188422,-0.039 -0.0812,-0.082 z m 6.720242,0 c 0.09702,-0.039 0.212948,-0.034 0.25761,0.011 0.04466,0.045 -0.03472,0.077 -0.176407,0.071 -0.156575,-0.01 -0.188422,-0.039 -0.0812,-0.082 z m 5.670204,0.032 c 0,-0.037 0.181447,-0.1626 0.403215,-0.2784 0.221768,-0.1158 0.403214,-0.18 0.403214,-0.1427 0,0.037 -0.181446,0.1626 -0.403214,0.2784 -0.221768,0.1158 -0.403215,0.1801 -0.403215,0.1427 z m 23.084032,-0.1647 c 0.0924,-0.038 0.243608,-0.038 0.336012,0 0.0924,0.038 0.0168,0.068 -0.168006,0.068 -0.184807,0 -0.26041,-0.031 -0.168006,-0.068 z m -37.624956,-0.1386 c 0.09702,-0.039 0.212947,-0.034 0.25761,0.011 0.04466,0.045 -0.03472,0.077 -0.176406,0.071 -0.156575,-0.01 -0.188422,-0.039 -0.0812,-0.082 z m 19.976408,-0.3898 c -0.250534,-0.2027 -0.248886,-0.2052 0.04151,-0.063 0.166326,0.081 0.302411,0.1764 0.302411,0.2111 0,0.1039 -0.0697,0.074 -0.343924,-0.148 z m -0.672024,-0.4072 c -0.250534,-0.2027 -0.248886,-0.2052 0.04151,-0.063 0.166326,0.081 0.302411,0.1764 0.302411,0.2111 0,0.1039 -0.0697,0.074 -0.343924,-0.148 z m -2.354346,-1.6552 -0.325839,-0.3733 0.369613,0.3291 c 0.34546,0.3075 0.431251,0.4175 0.325839,0.4175 -0.02407,0 -0.1904,-0.168 -0.369613,-0.3733 z m 4.101609,0.1622 c -0.250534,-0.2027 -0.248886,-0.2052 0.04151,-0.063 0.166326,0.081 0.302411,0.1764 0.302411,0.2111 0,0.1038 -0.0697,0.074 -0.343924,-0.148 z m 31.122633,0.022 c 0,-0.029 0.09386,-0.09 0.208588,-0.1342 0.119609,-0.046 0.17356,-0.024 0.126472,0.053 -0.07893,0.1289 -0.33506,0.1907 -0.33506,0.081 z m -61.288608,-0.2181 c -0.110884,-0.072 -0.141125,-0.1316 -0.0672,-0.1316 0.07392,0 0.225128,0.059 0.336012,0.1316 0.110884,0.072 0.141125,0.1315 0.0672,0.1315 -0.07392,0 -0.225128,-0.059 -0.336012,-0.1315 z m 25.322543,-0.5769 -0.25604,-0.3054 0.302411,0.2586 c 0.284191,0.243 0.363597,0.3522 0.25604,0.3522 -0.02551,0 -0.16159,-0.1374 -0.302411,-0.3054 z m 37.041303,0.2471 c 0,-0.037 0.120965,-0.1332 0.26881,-0.2132 0.147845,-0.08 0.26881,-0.1147 0.26881,-0.077 0,0.037 -0.120965,0.1333 -0.26881,0.2132 -0.147845,0.08 -0.26881,0.1147 -0.26881,0.077 z m -5.376193,-0.2665 c 0,-0.029 0.09386,-0.09 0.208588,-0.1342 0.11961,-0.046 0.17356,-0.024 0.126472,0.053 -0.07893,0.1289 -0.33506,0.1907 -0.33506,0.081 z m 0.806429,-0.4122 c 0,-0.037 0.120964,-0.1332 0.268809,-0.2131 0.147846,-0.08 0.26881,-0.1148 0.26881,-0.077 0,0.037 -0.120964,0.1332 -0.26881,0.2131 -0.147845,0.08 -0.268809,0.1148 -0.268809,0.077 z m -34.075834,-1.0614 -0.802223,-0.8483 0.840031,0.8101 c 0.462016,0.4456 0.84003,0.8273 0.84003,0.8483 0,0.1003 -0.132643,-0.022 -0.877838,-0.8101 z m 3.683195,0.475 c -0.167182,-0.2152 -0.162428,-0.22 0.05075,-0.051 0.129365,0.1024 0.235208,0.2093 0.235208,0.2375 0,0.1117 -0.110372,0.04 -0.285954,-0.1863 z m -31.164779,-0.034 c -0.121137,-0.079 -0.137715,-0.1324 -0.04153,-0.1337 0.08804,0 0.197454,0.059 0.243141,0.1337 0.103129,0.1685 0.0566,0.1685 -0.201608,0 z m -0.806429,-0.4072 c -0.121137,-0.079 -0.137715,-0.1324 -0.04153,-0.1336 0.08804,0 0.197454,0.059 0.243141,0.1336 0.103129,0.1685 0.0566,0.1685 -0.201608,0 z m 69.621708,0.081 c 0,-0.037 0.27217,-0.257 0.604822,-0.4881 0.332652,-0.2311 0.604822,-0.3897 0.604822,-0.3524 0,0.037 -0.27217,0.257 -0.604822,0.4881 -0.332652,0.2312 -0.604822,0.3897 -0.604822,0.3524 z m -5.510598,-0.1392 c 0,-0.037 0.120964,-0.1333 0.268809,-0.2132 0.147846,-0.08 0.26881,-0.1147 0.26881,-0.077 0,0.037 -0.120964,0.1333 -0.26881,0.2132 -0.147845,0.08 -0.268809,0.1147 -0.268809,0.077 z m -33.949992,-0.9257 -0.25604,-0.3054 0.302411,0.2585 c 0.166326,0.1422 0.30241,0.2797 0.30241,0.3054 0,0.1086 -0.108167,0.028 -0.348781,-0.2585 z m 35.159635,0.1184 c 0,-0.028 0.105844,-0.1351 0.235209,-0.2376 0.213174,-0.1688 0.217928,-0.164 0.05075,0.051 -0.175583,0.2261 -0.285955,0.298 -0.285955,0.1863 z m 5.846611,-0.2202 c 0.133799,-0.1493 0.273511,-0.2715 0.310472,-0.2715 0.03696,0 -0.04227,0.1222 -0.176067,0.2715 -0.133799,0.1493 -0.273511,0.2714 -0.310473,0.2714 -0.03696,0 0.04227,-0.1221 0.176068,-0.2714 z m -44.143389,-0.313 -0.327411,-0.4336 0.428215,0.3987 c 0.445497,0.4147 0.496338,0.4887 0.32741,0.4761 -0.05544,0 -0.248138,-0.2027 -0.428214,-0.4412 z m 45.436862,-0.8359 c 0.341798,-0.3759 0.687731,-0.8057 0.768741,-0.955 0.08308,-0.1531 0.149074,-0.1916 0.151379,-0.088 0.0022,0.1008 -0.343686,0.5305 -0.768741,0.955 -0.686832,0.6859 -0.703677,0.6957 -0.151379,0.088 z m -81.8147431,0.1648 -0.2560396,-0.3054 0.3024109,0.2586 c 0.2841916,0.243 0.3635975,0.3522 0.2560396,0.3522 -0.025504,0 -0.1615892,-0.1374 -0.3024109,-0.3054 z m 75.9888011,0.094 c 0.164294,-0.1162 0.303492,-0.3147 0.309328,-0.4411 0.0071,-0.1535 0.03398,-0.1709 0.081,-0.052 0.07734,0.195 -0.317212,0.7047 -0.545558,0.7047 -0.07891,0 -0.0091,-0.095 0.155235,-0.2113 z m -40.175906,-0.162 c -0.386675,-0.4714 -0.550505,-0.7125 -0.484061,-0.7125 0.03724,0 0.229169,0.2137 0.426511,0.475 0.366216,0.4849 0.410561,0.6679 0.05755,0.2375 z m -30.414519,-0.1542 c -0.04051,-0.066 0.03152,-0.2037 0.160073,-0.3054 0.206469,-0.1635 0.21427,-0.1599 0.06689,0.031 -0.09176,0.1188 -0.127044,0.2563 -0.0784,0.3054 0.04864,0.049 0.05169,0.089 0.0068,0.089 -0.04492,0 -0.114816,-0.054 -0.155325,-0.1203 z m -6.0075718,-0.3887 c -0.1671823,-0.2153 -0.1624284,-0.2201 0.050745,-0.051 0.1293647,0.1024 0.2352085,0.2093 0.2352085,0.2375 0,0.1117 -0.1103714,0.04 -0.2859537,-0.1863 z m 76.2582898,-0.1853 c -0.45812,-0.2962 -0.606375,-0.4952 -0.201607,-0.2705 0.308383,0.1711 0.791487,0.5484 0.705626,0.551 -0.03696,0 -0.26377,-0.1251 -0.504019,-0.2805 z m -38.284548,-0.2897 -0.25604,-0.3054 0.302411,0.2585 c 0.284191,0.243 0.363597,0.3523 0.25604,0.3523 -0.02551,0 -0.16159,-0.1375 -0.302411,-0.3054 z m -30.698736,-0.1602 c 0,-0.037 0.120964,-0.1332 0.268809,-0.2131 0.147846,-0.08 0.26881,-0.1147 0.26881,-0.077 0,0.037 -0.120964,0.1332 -0.26881,0.2131 -0.147845,0.08 -0.268809,0.1148 -0.268809,0.077 z m 75.460406,-0.2885 c -0.250534,-0.2027 -0.248886,-0.2052 0.04151,-0.063 0.166326,0.081 0.302411,0.1763 0.302411,0.211 0,0.1039 -0.0697,0.074 -0.343924,-0.148 z m -74.653977,-0.1269 c 0,-0.093 0.822948,-0.5049 0.884433,-0.4428 0.02916,0.029 -0.157903,0.1551 -0.415705,0.2792 -0.2578,0.1242 -0.468728,0.1978 -0.468728,0.1636 z m 73.713143,-0.416 c -0.250534,-0.2027 -0.248886,-0.2052 0.04151,-0.063 0.166326,0.081 0.302411,0.1764 0.302411,0.2111 0,0.1039 -0.0697,0.074 -0.343924,-0.148 z m -45.219317,-0.8747 c -0.07912,-0.1494 -0.113622,-0.2715 -0.07666,-0.2715 0.03696,0 0.131941,0.1221 0.211065,0.2715 0.07912,0.1493 0.113622,0.2714 0.07666,0.2714 -0.03696,0 -0.131941,-0.1221 -0.211065,-0.2714 z m -2.291043,-0.4189 c -0.08251,-0.1557 -0.124707,-0.3086 -0.09376,-0.3399 0.03094,-0.031 0.125269,0.096 0.209615,0.2831 0.185219,0.4105 0.09504,0.4548 -0.115851,0.057 z m 43.150115,-0.8027 c -0.110884,-0.072 -0.141125,-0.1316 -0.0672,-0.1316 0.07392,0 0.225128,0.059 0.336012,0.1316 0.110884,0.072 0.141126,0.1315 0.0672,0.1315 -0.07392,0 -0.225128,-0.059 -0.336012,-0.1315 z m -35.382075,-0.2315 c 0.166326,-0.032 0.438496,-0.032 0.604822,0 0.166326,0.032 0.03024,0.059 -0.302411,0.059 -0.332652,0 -0.468737,-0.027 -0.302411,-0.059 z m 1.144999,0 c 0.130772,-0.034 0.312219,-0.032 0.403215,0 0.091,0.037 -0.016,0.065 -0.237766,0.063 -0.221768,0 -0.296221,-0.033 -0.165449,-0.068 z m 22.653059,0 c 0.09702,-0.039 0.212948,-0.034 0.257609,0.011 0.04466,0.045 -0.03472,0.077 -0.176406,0.071 -0.156575,-0.01 -0.188422,-0.039 -0.0812,-0.082 z m -36.331309,-0.1787 c 0.04569,-0.075 0.109739,-0.1358 0.142337,-0.1358 0.0326,0 0.05927,0.061 0.05927,0.1358 0,0.075 -0.06405,0.1357 -0.142337,0.1357 -0.07829,0 -0.104957,-0.061 -0.05927,-0.1357 z m 23.831658,0.043 c 0.09702,-0.039 0.212949,-0.034 0.25761,0.011 0.04466,0.045 -0.03472,0.077 -0.176406,0.071 -0.156575,-0.01 -0.188422,-0.039 -0.0812,-0.082 z m 11.558817,0 c 0.09702,-0.039 0.212948,-0.034 0.257609,0.011 0.04466,0.045 -0.03472,0.077 -0.176406,0.071 -0.156575,-0.01 -0.188422,-0.039 -0.0812,-0.082 z m -45.563242,-0.1357 c 0.09702,-0.039 0.212947,-0.034 0.25761,0.011 0.04466,0.045 -0.03472,0.077 -0.176406,0.071 -0.156575,-0.01 -0.188422,-0.039 -0.0812,-0.082 z m 8.86232,0 c 0.0924,-0.038 0.243608,-0.038 0.336012,0 0.0924,0.038 0.0168,0.068 -0.168006,0.068 -0.184807,0 -0.26041,-0.031 -0.168006,-0.068 z m 26.276146,0 c 0.129365,-0.034 0.341052,-0.034 0.470417,0 0.129365,0.034 0.02352,0.062 -0.235208,0.062 -0.25873,0 -0.364574,-0.028 -0.235209,-0.062 z m 9.007682,-5e-4 c 0.130772,-0.034 0.312219,-0.032 0.403215,0 0.091,0.037 -0.016,0.065 -0.237766,0.063 -0.221768,0 -0.296221,-0.033 -0.165449,-0.068 z m -42.405718,-0.1377 c 0.167188,-0.032 0.409116,-0.031 0.53762,0 0.128503,0.034 -0.0083,0.061 -0.303978,0.059 -0.295691,0 -0.400829,-0.029 -0.233642,-0.062 z m 4.90421,0 c 0.129364,-0.034 0.341052,-0.034 0.470417,0 0.129364,0.034 0.02352,0.062 -0.235209,0.062 -0.258729,0 -0.364573,-0.028 -0.235208,-0.062 z m 30.442696,0 c 0.166326,-0.032 0.438496,-0.032 0.604822,0 0.166326,0.032 0.03024,0.059 -0.302411,0.059 -0.332652,0 -0.468737,-0.026 -0.302411,-0.059 z m 4.974547,-3e-4 c 0.167187,-0.032 0.409116,-0.031 0.537619,0 0.128503,0.034 -0.0083,0.061 -0.303978,0.059 -0.295691,0 -0.400829,-0.029 -0.233641,-0.062 z m -23.104311,-0.862 -0.3173,-0.2795 0.369613,0.2272 c 0.203287,0.125 0.369613,0.2508 0.369613,0.2795 0,0.106 -0.112293,0.046 -0.421926,-0.2272 z m 8.755027,0.096 c 0,-0.031 0.158652,-0.162 0.35256,-0.2903 0.193908,-0.1283 0.311504,-0.1662 0.261324,-0.084 -0.09589,0.1566 -0.613884,0.4727 -0.613884,0.3745 z m -9.883808,-1.0723 -0.666972,-0.71261 0.705625,0.67351 c 0.655679,0.6259 0.767263,0.7517 0.666972,0.7517 -0.02126,0 -0.338792,-0.3207 -0.705625,-0.7126 z m 18.082503,0.6613 c 0,-0.028 0.105844,-0.1351 0.235208,-0.2375 0.213175,-0.1688 0.217928,-0.164 0.05075,0.051 -0.175582,0.2261 -0.285954,0.298 -0.285954,0.1863 z m -6.725859,-0.7971 c 0.556968,-0.59923 0.677641,-0.70699 0.677641,-0.60507 0,0.0218 -0.28729,0.31191 -0.638423,0.64477 l -0.638423,0.6051 0.599205,-0.6448 z m -21.84794,0 -0.256039,-0.30535 0.30241,0.25855 c 0.284191,0.243 0.363598,0.3522 0.25604,0.3522 -0.0255,0 -0.161589,-0.1374 -0.302411,-0.3054 z m 29.245823,0.2542 c 0,-0.028 0.105844,-0.1351 0.235209,-0.2375 0.213174,-0.1689 0.217928,-0.1641 0.05075,0.051 -0.175583,0.2261 -0.285955,0.298 -0.285955,0.1863 z m -14.137709,-0.1772 c 0.09702,-0.039 0.212948,-0.034 0.25761,0.011 0.04466,0.045 -0.03472,0.077 -0.176407,0.071 -0.156575,-0.01 -0.188422,-0.039 -0.0812,-0.082 z m -0.672024,-0.1357 c 0.09702,-0.039 0.212948,-0.034 0.257609,0.011 0.04466,0.045 -0.03472,0.077 -0.176406,0.071 -0.156575,-0.01 -0.188422,-0.039 -0.0812,-0.082 z m 28.090612,0 c 0.09702,-0.039 0.212948,-0.034 0.257609,0.011 0.04466,0.045 -0.03472,0.077 -0.176406,0.071 -0.156575,-0.01 -0.188422,-0.039 -0.0812,-0.082 z m -12.340045,-0.51811 c 0.173618,-0.18663 0.345908,-0.33933 0.38287,-0.33933 0.03696,0 -0.07485,0.1527 -0.248465,0.33933 -0.173618,0.18663 -0.345908,0.33931 -0.38287,0.33931 -0.03696,0 0.07485,-0.15268 0.248465,-0.33931 z m 3.024109,0.0679 c 0.133799,-0.14931 0.273511,-0.27147 0.310472,-0.27147 0.03696,0 -0.04227,0.12216 -0.176067,0.27147 -0.133799,0.1493 -0.273511,0.27141 -0.310473,0.27141 -0.03696,0 0.04227,-0.12211 0.176068,-0.27141 z m 7.703077,0.17874 c 0.09702,-0.0392 0.212949,-0.0344 0.25761,0.0107 0.04466,0.0451 -0.03472,0.0772 -0.176406,0.0713 -0.156575,-0.007 -0.188422,-0.0387 -0.0812,-0.082 z m -44.748755,-0.28054 c -0.167183,-0.21528 -0.162429,-0.22008 0.05074,-0.0513 0.129365,0.10246 0.235209,0.20935 0.235209,0.23753 0,0.11171 -0.110372,0.0398 -0.285954,-0.18628 z m 3.028483,-0.0679 -0.25604,-0.30539 0.302411,0.25856 c 0.284191,0.24299 0.363598,0.35223 0.25604,0.35223 -0.0255,0 -0.161589,-0.13743 -0.302411,-0.3054 z m 34.462411,0.21268 c 0.09702,-0.0392 0.212948,-0.0344 0.25761,0.0107 0.04466,0.0451 -0.03472,0.0772 -0.176407,0.0713 -0.156575,-0.007 -0.188422,-0.0387 -0.0812,-0.082 z m 6.308627,0.003 c 0.0924,-0.0376 0.243609,-0.0376 0.336012,0 0.0924,0.0376 0.0168,0.0685 -0.168006,0.0685 -0.184806,0 -0.260409,-0.0308 -0.168006,-0.0685 z m -45.017221,-0.13856 c 0.09702,-0.0392 0.212947,-0.0344 0.257609,0.0107 0.04466,0.0451 -0.03472,0.0772 -0.176406,0.0713 -0.156575,-0.007 -0.188422,-0.0387 -0.0812,-0.082 z m 39.97704,-8.1e-4 c 0.129364,-0.0341 0.341052,-0.0341 0.470417,0 0.129364,0.0341 0.02352,0.0621 -0.235209,0.0621 -0.258729,0 -0.364573,-0.0279 -0.235208,-0.0621 z m 3.225716,0 c 0.129365,-0.0341 0.341052,-0.0341 0.470417,0 0.129365,0.0341 0.02352,0.0621 -0.235209,0.0621 -0.258729,0 -0.364573,-0.0279 -0.235208,-0.0621 z m -45.428836,-0.13573 c 0.129364,-0.0341 0.341052,-0.0341 0.470416,0 0.129365,0.0341 0.02352,0.0621 -0.235208,0.0621 -0.258729,0 -0.364573,-0.0279 -0.235208,-0.0621 z m 19.706765,-0.27973 c -0.167182,-0.21527 -0.162428,-0.22007 0.05075,-0.0512 0.223885,0.17731 0.295083,0.28877 0.184463,0.28877 -0.02791,0 -0.133753,-0.10688 -0.235209,-0.23753 z m 10.097508,0.18629 c 0,-0.0282 0.105844,-0.13508 0.235209,-0.23753 0.213174,-0.16883 0.217928,-0.16403 0.05074,0.0512 -0.175582,0.2261 -0.285954,0.298 -0.285954,0.18629 z m -2.419287,-0.13573 c 0,-0.0282 0.105844,-0.13508 0.235208,-0.23753 0.213175,-0.16884 0.217928,-0.16403 0.05075,0.0512 -0.175582,0.2261 -0.285954,0.298 -0.285954,0.18629 z m -8.343273,-0.59348 -0.325839,-0.37326 0.369613,0.32905 c 0.345459,0.30756 0.43125,0.41747 0.325839,0.41747 -0.02408,0 -0.190401,-0.16797 -0.369613,-0.37326 z m 19.762068,-0.2036 c 0.556968,-0.59928 0.677641,-0.70703 0.677641,-0.60511 0,0.0218 -0.287291,0.3119 -0.638423,0.64472 l -0.638423,0.60512 0.599205,-0.64473 z m 3.43294,-0.37326 c 0.513494,-0.52256 0.963865,-0.95012 1.000827,-0.95012 0.03696,0 -0.352929,0.42756 -0.866422,0.95012 -0.513494,0.52257 -0.963866,0.95012 -1.000827,0.95012 -0.03696,0 0.352928,-0.42755 0.866422,-0.95012 z m -39.995613,0.44113 -0.325839,-0.37326 0.369613,0.32905 c 0.345459,0.30755 0.43125,0.41747 0.325839,0.41747 -0.02407,0 -0.190401,-0.16797 -0.369613,-0.37326 z m 3.155917,0.0679 -0.25604,-0.30539 0.302411,0.25857 c 0.284191,0.24298 0.363597,0.35222 0.256039,0.35222 -0.0255,0 -0.161589,-0.13743 -0.30241,-0.3054 z m 9.633327,0.0905 c 0.0065,-0.15812 0.0383,-0.19028 0.0812,-0.082 0.03883,0.098 0.03405,0.21505 -0.0106,0.26015 -0.04466,0.0451 -0.07643,-0.0351 -0.07059,-0.17815 z m 1.333437,-0.19228 c -0.07912,-0.14931 -0.113622,-0.27147 -0.07666,-0.27147 0.03696,0 0.131942,0.12216 0.211066,0.27147 0.07912,0.1493 0.113622,0.27146 0.07666,0.27146 -0.03696,0 -0.131941,-0.12216 -0.211065,-0.27146 z m 11.827626,-0.0513 c 0,-0.0282 0.105844,-0.13507 0.235208,-0.23753 0.213175,-0.16883 0.217929,-0.16403 0.05075,0.0512 -0.175582,0.22609 -0.285954,0.29799 -0.285954,0.18628 z M 32.349091,997.6274 c -0.326473,-0.33593 -0.563347,-0.61079 -0.526386,-0.61079 0.03696,0 0.334318,0.27486 0.660791,0.61079 0.326473,0.33594 0.563347,0.61079 0.526386,0.61079 -0.03696,0 -0.334318,-0.27485 -0.660791,-0.61079 z m 8.623131,0.2036 c 0,-0.18663 0.03051,-0.26298 0.06779,-0.16966 0.03729,0.0933 0.03729,0.24601 0,0.33932 -0.03729,0.0933 -0.06779,0.017 -0.06779,-0.16966 z m 1.871058,0.0566 c 0.0065,-0.15812 0.0383,-0.19029 0.0812,-0.082 0.03883,0.098 0.03405,0.21505 -0.0106,0.26015 -0.04466,0.0451 -0.07643,-0.0351 -0.07059,-0.17814 z m -13.665472,-0.36195 -0.25604,-0.3054 0.302411,0.25857 c 0.284191,0.24299 0.363597,0.35222 0.256039,0.35222 -0.0255,0 -0.161589,-0.13743 -0.30241,-0.30539 z m 27.643756,0.0339 c 0.195936,-0.41548 0.258018,-0.49248 0.258018,-0.32003 0,0.0728 -0.09406,0.25097 -0.209022,0.39588 -0.197088,0.24843 -0.199886,0.2441 -0.049,-0.0759 z m 11.273598,-0.44113 c 0.556968,-0.59928 0.677641,-0.70703 0.677641,-0.60512 0,0.0218 -0.28729,0.31191 -0.638423,0.64473 l -0.638423,0.60511 0.599205,-0.64472 z m -27.257345,-0.37326 c 0,-0.18663 0.03051,-0.26298 0.06779,-0.16966 0.03728,0.0933 0.03728,0.24601 0,0.33933 -0.03729,0.0933 -0.06779,0.017 -0.06779,-0.16967 z m 1.897053,-0.40719 c 0,-0.33594 0.02621,-0.47336 0.05825,-0.3054 0.03204,0.16797 0.03204,0.44283 0,0.61079 -0.03204,0.16797 -0.05825,0.0305 -0.05825,-0.30539 z m 0.925449,0.13573 c 0,-0.18663 0.03051,-0.26298 0.06779,-0.16966 0.03729,0.0933 0.03729,0.24601 0,0.33932 -0.03728,0.0933 -0.06779,0.017 -0.06779,-0.16966 z m 27.934986,0.17939 c 0,-0.0755 0.136085,-0.25367 0.302411,-0.39588 l 0.302411,-0.25857 -0.267377,0.33933 c -0.147058,0.18663 -0.283143,0.36478 -0.302411,0.39588 -0.01927,0.0311 -0.03503,-0.005 -0.03503,-0.0808 z m -40.473002,-0.41692 c -0.167182,-0.21528 -0.162428,-0.22008 0.05075,-0.0513 0.223885,0.17732 0.295083,0.28878 0.184462,0.28878 -0.02791,0 -0.133753,-0.10689 -0.235208,-0.23753 z m 14.543479,-0.11311 c 0.0065,-0.15812 0.0383,-0.19028 0.0812,-0.082 0.03883,0.098 0.03405,0.21505 -0.0106,0.26015 -0.04466,0.0451 -0.07643,-0.0351 -0.07059,-0.17815 z m 23.78472,-0.59948 c 0.803957,-1.01835 1.100144,-1.33299 0.70274,-0.74652 -0.151757,0.22396 -0.528671,0.68205 -0.837587,1.01798 -0.456262,0.49617 -0.430956,0.44523 0.134847,-0.27146 z m 3.010002,-0.0446 c 0.206991,-0.27406 0.40353,-0.49829 0.436751,-0.49829 0.09337,0 -0.488501,0.79398 -0.660569,0.90137 -0.08389,0.0524 0.01682,-0.12903 0.223818,-0.40308 z m -13.085429,0.10119 c 0.0065,-0.15812 0.0383,-0.19029 0.0812,-0.082 0.03883,0.098 0.03405,0.21505 -0.0106,0.26015 -0.04466,0.0451 -0.07643,-0.0351 -0.07059,-0.17814 z M 42.73487,995.118 c 0,-0.33594 0.02621,-0.47336 0.05825,-0.3054 0.03204,0.16797 0.03204,0.44283 0,0.61079 -0.03204,0.16797 -0.05825,0.0305 -0.05825,-0.30539 z m 10.349173,0 c 0,-0.33594 0.02621,-0.47336 0.05825,-0.3054 0.03204,0.16797 0.03204,0.44283 0,0.61079 -0.03204,0.16797 -0.05825,0.0305 -0.05825,-0.30539 z m 4.409365,0.32802 c 0.0065,-0.15812 0.0383,-0.19029 0.0812,-0.082 0.03883,0.098 0.03405,0.21505 -0.0106,0.26015 -0.04466,0.0451 -0.07643,-0.0351 -0.07059,-0.17814 z m -27.177534,-0.15836 c -0.167182,-0.21528 -0.162428,-0.22008 0.05075,-0.0512 0.223885,0.17732 0.295083,0.28878 0.184462,0.28878 -0.02791,0 -0.133753,-0.10689 -0.235208,-0.23753 z m 15.238786,-0.23753 c 0.0015,-0.29861 0.02902,-0.40478 0.06117,-0.23594 0.03215,0.16883 0.03093,0.41315 -0.0027,0.54292 -0.03364,0.12977 -0.05994,-0.008 -0.05845,-0.30698 z m 8.041007,-0.28277 c 0.0065,-0.15812 0.0383,-0.19028 0.0812,-0.082 0.03883,0.098 0.03405,0.21505 -0.0106,0.26016 -0.04466,0.0451 -0.07643,-0.0351 -0.07059,-0.17815 z m 19.343686,0.0279 c 0,-0.0282 0.105844,-0.13507 0.235209,-0.23753 0.213174,-0.16883 0.217928,-0.16403 0.05075,0.0512 -0.175583,0.22609 -0.285955,0.29799 -0.285955,0.18628 z m -43.33692,-0.45189 c -0.07294,-0.19345 -0.0575,-0.20904 0.07524,-0.076 0.09186,0.0921 0.13315,0.20159 0.09177,0.24338 -0.04138,0.0418 -0.116536,-0.0335 -0.167009,-0.1674 z m 14.047276,0.0168 c 0.0065,-0.15812 0.0383,-0.19029 0.0812,-0.082 0.03883,0.098 0.03405,0.21505 -0.0106,0.26015 -0.04466,0.0451 -0.07643,-0.0351 -0.07059,-0.17814 z m 26.735952,-0.10781 c 0,-0.0282 0.105844,-0.13507 0.235209,-0.23753 0.213174,-0.16883 0.217928,-0.16403 0.05075,0.0513 -0.175583,0.2261 -0.285955,0.298 -0.285955,0.18628 z M 29.10623,993.65889 c -0.167182,-0.21528 -0.162428,-0.22008 0.05075,-0.0513 0.129365,0.10246 0.235209,0.20935 0.235209,0.23753 0,0.11171 -0.110372,0.0398 -0.285955,-0.18628 z m 30.279455,-0.44113 c 0,-0.18663 0.03051,-0.26298 0.06779,-0.16966 0.03729,0.0933 0.03729,0.24601 0,0.33933 -0.03728,0.0933 -0.06779,0.017 -0.06779,-0.16967 z m -6.800024,-0.0959 c -0.07294,-0.19345 -0.0575,-0.20904 0.07524,-0.076 0.09186,0.0921 0.133151,0.20159 0.09177,0.24338 -0.04138,0.0418 -0.116535,-0.0335 -0.167008,-0.1674 z m 4.907747,-0.2547 c 0.0065,-0.15812 0.0383,-0.19028 0.0812,-0.082 0.03883,0.098 0.03405,0.21505 -0.0106,0.26015 -0.04466,0.0451 -0.07643,-0.0351 -0.07059,-0.17815 z m -16.65061,-0.26015 c 0.0027,-0.22395 0.03286,-0.29914 0.06694,-0.16708 0.03408,0.13206 0.03184,0.3153 -0.005,0.40719 -0.03682,0.0919 -0.0647,-0.0162 -0.06196,-0.24011 z m 11.24666,-0.30539 c -0.167182,-0.21528 -0.162428,-0.22008 0.05075,-0.0512 0.223885,0.17732 0.295083,0.28878 0.184463,0.28878 -0.02791,0 -0.133753,-0.10689 -0.235209,-0.23753 z m -5.627859,0.0506 c 0,-0.0282 0.105844,-0.13507 0.235209,-0.23753 0.213174,-0.16883 0.217928,-0.16403 0.05075,0.0512 -0.175583,0.22609 -0.285955,0.29799 -0.285955,0.18628 z m 28.166456,-0.12427 c 0.05047,-0.13386 0.125626,-0.20919 0.167008,-0.1674 0.04138,0.0418 8.6e-5,0.15131 -0.09177,0.24338 -0.132741,0.13305 -0.148178,0.11746 -0.07524,-0.076 z m -27.436292,-0.48833 c 0.09589,-0.15669 0.613885,-0.47271 0.613885,-0.37452 0,0.0314 -0.158653,0.162 -0.35256,0.29031 -0.193909,0.12831 -0.311505,0.1662 -0.261325,0.0842 z m 4.033296,-0.2259 c -0.250533,-0.20269 -0.248886,-0.2052 0.04151,-0.0631 0.166326,0.0814 0.30241,0.17638 0.30241,0.21108 0,0.10386 -0.0697,0.0739 -0.343924,-0.148 z M 52.627077,991.08 c -0.167182,-0.21528 -0.162428,-0.22008 0.05075,-0.0513 0.129365,0.10246 0.235209,0.20934 0.235209,0.23753 0,0.11171 -0.110372,0.0398 -0.285955,-0.18628 z m -7.307919,-0.3054 c 0.133799,-0.1493 0.273511,-0.27146 0.310473,-0.27146 0.03696,0 -0.04227,0.12216 -0.176068,0.27146 -0.133799,0.14931 -0.273511,0.27146 -0.310472,0.27146 -0.03696,0 0.04227,-0.12215 0.176067,-0.27146 z m 3.931342,0.17567 c 0.166326,-0.0324 0.438496,-0.0324 0.604822,0 0.166326,0.0324 0.03024,0.0588 -0.302411,0.0588 -0.332652,0 -0.468737,-0.0265 -0.302411,-0.0588 z m 2.776131,-0.48106 -0.25604,-0.3054 0.302411,0.25857 c 0.166326,0.14221 0.30241,0.27964 0.30241,0.30539 0,0.10862 -0.108167,0.0284 -0.348781,-0.25856 z M 26.914336,990 c -0.07294,-0.19344 -0.0575,-0.20903 0.07524,-0.076 0.09185,0.0921 0.133151,0.20159 0.09177,0.24338 -0.04138,0.0418 -0.116536,-0.0335 -0.167009,-0.1674 z m 12.759819,-0.17552 c -0.04569,-0.0747 -0.01902,-0.13573 0.05927,-0.13573 0.07829,0 0.142337,0.0611 0.142337,0.13573 0,0.0747 -0.02667,0.13573 -0.05927,0.13573 -0.0326,0 -0.09665,-0.0611 -0.142337,-0.13573 z m 7.056254,0 c 0.110884,-0.0724 0.26209,-0.13157 0.336012,-0.13157 0.07392,0 0.04368,0.0592 -0.0672,0.13157 -0.110884,0.0724 -0.26209,0.13158 -0.336012,0.13158 -0.07392,0 -0.04368,-0.0592 0.0672,-0.13158 z m 13.628475,-0.30539 c -0.05318,-0.0933 -0.04497,-0.12214 0.01824,-0.064 0.06321,0.0581 0.511402,-0.27785 0.995983,-0.74653 l 0.881057,-0.85213 -0.869748,0.91619 c -0.478362,0.5039 -0.883048,0.91618 -0.8993,0.91618 -0.01625,0 -0.07306,-0.0764 -0.126236,-0.16966 z m -10.293555,-0.0588 c 0.09702,-0.0392 0.212949,-0.0344 0.25761,0.0107 0.04466,0.0451 -0.03472,0.0772 -0.176406,0.0713 -0.156575,-0.007 -0.188423,-0.0387 -0.0812,-0.082 z m -1.285246,-0.13657 c 0.129365,-0.0341 0.341052,-0.0341 0.470417,0 0.129365,0.0341 0.02352,0.0621 -0.235209,0.0621 -0.258729,0 -0.364573,-0.0279 -0.235208,-0.0621 z m -10.527352,-0.95836 -0.325839,-0.37326 0.369613,0.32906 c 0.34546,0.30755 0.43125,0.41746 0.325839,0.41746 -0.02407,0 -0.1904,-0.16796 -0.369613,-0.37326 z m 24.471854,-0.91618 c 0.173618,-0.18663 0.345909,-0.33933 0.38287,-0.33933 0.03696,0 -0.07485,0.1527 -0.248465,0.33933 -0.173617,0.18663 -0.345908,0.33933 -0.38287,0.33933 -0.03696,0 0.07485,-0.1527 0.248465,-0.33933 z m -25.822874,-0.3054 c -0.167182,-0.21527 -0.162428,-0.22007 0.05075,-0.0512 0.223885,0.17731 0.295083,0.28877 0.184462,0.28877 -0.02791,0 -0.133752,-0.10688 -0.235208,-0.23753 z m -0.672024,-0.54292 c -0.167182,-0.21528 -0.162428,-0.22008 0.05075,-0.0512 0.223885,0.17732 0.295083,0.28878 0.184462,0.28878 -0.02791,0 -0.133753,-0.10689 -0.235208,-0.23753 z m 21.202511,-0.37851 c -0.129698,-0.34132 -0.09144,-0.42939 0.06701,-0.15424 0.07845,0.13624 0.114325,0.27631 0.07972,0.31125 -0.03461,0.0349 -0.100632,-0.0357 -0.146725,-0.15701 z m 4.956375,-0.0626 c 0.133799,-0.1493 0.273511,-0.27146 0.310473,-0.27146 0.03696,0 -0.04227,0.12216 -0.176068,0.27146 -0.133799,0.14931 -0.273511,0.27147 -0.310473,0.27147 -0.03696,0 0.04227,-0.12216 0.176068,-0.27147 z m 1.814465,0.0845 c 0,-0.0282 0.105844,-0.13508 0.235209,-0.23753 0.213174,-0.16883 0.217928,-0.16403 0.05075,0.0512 -0.175583,0.2261 -0.285955,0.298 -0.285955,0.18629 z m -19.009644,-0.53147 c 0.05047,-0.13386 0.125627,-0.20919 0.167009,-0.1674 0.04138,0.0418 8.6e-5,0.15131 -0.09177,0.24339 -0.132741,0.13305 -0.148178,0.11746 -0.07524,-0.076 z m 9.601306,-0.0959 c -0.07912,-0.14931 -0.113622,-0.27146 -0.07666,-0.27146 0.03696,0 0.131941,0.12215 0.211065,0.27146 0.07912,0.1493 0.113622,0.27146 0.07666,0.27146 -0.03696,0 -0.131941,-0.12216 -0.211065,-0.27146 z m -17.220965,-0.1018 c -0.167182,-0.21528 -0.162428,-0.22008 0.05075,-0.0513 0.223885,0.17732 0.295083,0.28878 0.184463,0.28878 -0.02791,0 -0.133753,-0.10689 -0.235209,-0.23753 z m 26.024482,-0.71259 c 0.513493,-0.52256 0.963865,-0.95012 1.000827,-0.95012 0.03696,0 -0.352929,0.42756 -0.866422,0.95012 -0.513494,0.52257 -0.963866,0.95012 -1.000827,0.95012 -0.03696,0 0.352928,-0.42755 0.866422,-0.95012 z m -29.576978,0.19611 c -0.250533,-0.2027 -0.248885,-0.2052 0.04151,-0.0631 0.166326,0.0814 0.302411,0.17639 0.302411,0.21108 0,0.10387 -0.0697,0.0739 -0.343925,-0.14799 z m 20.370246,-0.0604 c -0.07912,-0.1493 -0.113622,-0.27146 -0.07666,-0.27146 0.03696,0 0.131941,0.12216 0.211065,0.27146 0.07912,0.14931 0.113622,0.27147 0.07666,0.27147 -0.03696,0 -0.131941,-0.12216 -0.211065,-0.27147 z m -17.418197,-0.16966 -0.25604,-0.3054 0.302411,0.25857 c 0.166326,0.14221 0.302411,0.27964 0.302411,0.3054 0,0.10861 -0.108167,0.0284 -0.348782,-0.25857 z m 8.88349,-0.37326 c 0.114681,-0.22396 0.238751,-0.40719 0.275712,-0.40719 0.03696,0 -0.02663,0.18323 -0.141308,0.40719 -0.11468,0.22395 -0.238751,0.40719 -0.275712,0.40719 -0.03696,0 0.02663,-0.18324 0.141308,-0.40719 z m 21.168762,-0.0583 c 0,-0.0373 0.120965,-0.13324 0.26881,-0.21314 0.147845,-0.0799 0.26881,-0.11475 0.26881,-0.0774 0,0.0373 -0.120965,0.13324 -0.26881,0.21315 -0.147845,0.0799 -0.26881,0.11474 -0.26881,0.0774 z m 10.628594,-0.56378 c 0.0065,-0.15812 0.0383,-0.19028 0.0812,-0.082 0.03883,0.098 0.03405,0.21505 -0.0106,0.26016 -0.04466,0.0451 -0.07643,-0.0351 -0.07059,-0.17815 z m -12.644666,-0.26015 c 0.173617,-0.18663 0.345908,-0.33933 0.382869,-0.33933 0.03696,0 -0.07485,0.1527 -0.248465,0.33933 -0.173617,0.18663 -0.345908,0.33932 -0.382869,0.33932 -0.03696,0 0.07485,-0.15269 0.248465,-0.33932 z m -29.380228,-0.1018 -0.25604,-0.3054 0.302411,0.25857 c 0.284191,0.24299 0.363597,0.35222 0.25604,0.35222 -0.02551,0 -0.16159,-0.13742 -0.302411,-0.30539 z m 32.704507,0.15282 c 0.09117,-0.0928 0.199623,-0.13447 0.241005,-0.0927 0.04138,0.0418 -0.03321,0.11769 -0.165765,0.16866 -0.191554,0.0737 -0.206992,0.0581 -0.07524,-0.076 z m -2.78666,-0.4416 c 0,-0.0282 0.105844,-0.13507 0.235208,-0.23753 0.213175,-0.16883 0.217928,-0.16403 0.05075,0.0513 -0.175582,0.22609 -0.285954,0.29799 -0.285954,0.18628 z m 12.241452,-0.16366 c 0.0065,-0.15812 0.0383,-0.19028 0.0812,-0.082 0.03882,0.098 0.03405,0.21504 -0.0106,0.26015 -0.04466,0.0451 -0.07643,-0.0351 -0.07059,-0.17815 z m -22.111567,-0.55969 c -0.07294,-0.19345 -0.0575,-0.20904 0.07524,-0.076 0.09186,0.0921 0.133151,0.20159 0.09177,0.24338 -0.04138,0.0418 -0.116536,-0.0335 -0.167009,-0.1674 z m -3.03275,-0.17552 c -0.07912,-0.1493 -0.113622,-0.27146 -0.07666,-0.27146 0.03696,0 0.131941,0.12216 0.211065,0.27146 0.07912,0.1493 0.113622,0.27146 0.07666,0.27146 -0.03696,0 -0.131941,-0.12216 -0.211065,-0.27146 z m 23.128244,-0.0792 c 0.0065,-0.15812 0.0383,-0.19028 0.0812,-0.082 0.03883,0.098 0.03405,0.21505 -0.0106,0.26015 -0.04466,0.0451 -0.07643,-0.0351 -0.07059,-0.17815 z m 2.166069,-0.26015 c 0.0027,-0.22395 0.03286,-0.29914 0.06694,-0.16708 0.03408,0.13206 0.03184,0.3153 -0.005,0.4072 -0.03682,0.0919 -0.0647,-0.0162 -0.06196,-0.24012 z M 22.01053,981.73717 c 0.0065,-0.15812 0.0383,-0.19028 0.0812,-0.082 0.03882,0.098 0.03405,0.21504 -0.01061,0.26015 -0.04466,0.0451 -0.07643,-0.0351 -0.07059,-0.17815 z m 51.441242,-0.0135 c 0.09702,-0.0392 0.212948,-0.0344 0.257609,0.0107 0.04466,0.0451 -0.03472,0.0772 -0.176406,0.0713 -0.156575,-0.007 -0.188422,-0.0387 -0.0812,-0.082 z m -21.362314,-0.28054 c -0.167182,-0.21528 -0.162428,-0.22008 0.05075,-0.0512 0.223885,0.17731 0.295083,0.28878 0.184463,0.28878 -0.02791,0 -0.133753,-0.10689 -0.235209,-0.23753 z m 22.160342,0.14763 c 0.0924,-0.0376 0.243609,-0.0376 0.336012,0 0.0924,0.0377 0.0168,0.0685 -0.168006,0.0685 -0.184806,0 -0.260409,-0.0308 -0.168006,-0.0685 z m 1.352449,-0.13855 c 0.09702,-0.0392 0.212948,-0.0344 0.25761,0.0107 0.04466,0.0451 -0.03472,0.0772 -0.176407,0.0713 -0.156574,-0.007 -0.188422,-0.0387 -0.0812,-0.082 z m -27.800608,-0.30692 c 0.07692,-0.14515 0.206287,-0.30536 0.28748,-0.35604 0.08119,-0.0507 0.04367,0.0681 -0.08338,0.2639 -0.269027,0.41464 -0.408338,0.47753 -0.204098,0.0921 z m 20.532106,0.11133 c 0.09117,-0.0928 0.199623,-0.13447 0.241005,-0.0927 0.04138,0.0418 -0.03321,0.11768 -0.165765,0.16865 -0.191554,0.0737 -0.206992,0.0581 -0.07524,-0.076 z m -23.619411,-0.66181 c 0.07912,-0.14931 0.174104,-0.27147 0.211066,-0.27147 0.03696,0 0.0025,0.12216 -0.07666,0.27147 -0.07912,0.1493 -0.174104,0.27146 -0.211065,0.27146 -0.03696,0 -0.0025,-0.12216 0.07666,-0.27146 z m 6.64027,-0.16967 -0.25604,-0.30539 0.302411,0.25856 c 0.284191,0.24299 0.363598,0.35223 0.25604,0.35223 -0.0255,0 -0.161589,-0.13743 -0.302411,-0.3054 z m 26.692131,-1.04247 c 0,-1.00836 -0.01912,-1.08013 -0.302411,-1.13523 -0.259287,-0.0504 -0.249702,-0.0615 0.0672,-0.0773 l 0.369613,-0.0185 0,1.15371 c 0,0.63454 -0.03024,1.15372 -0.0672,1.15372 -0.03696,0 -0.0672,-0.48439 -0.0672,-1.07641 z m -27.301327,0.29595 c -0.167182,-0.21528 -0.162429,-0.22008 0.05075,-0.0512 0.223884,0.17731 0.295083,0.28877 0.184462,0.28877 -0.02791,0 -0.133753,-0.10689 -0.235208,-0.23753 z m -28.864306,-0.67865 c -0.0086,-0.46658 0.03021,-0.84832 0.08618,-0.84832 0.05597,0 0.08326,0.29012 0.06064,0.64472 -0.0658,1.03142 -0.129975,1.12041 -0.146826,0.2036 z m 28.259276,-0.0155 c -0.256042,-0.31345 -0.31263,-0.33007 -0.53762,-0.15786 -0.241429,0.1848 -0.242041,0.1821 -0.01538,-0.0676 0.231605,-0.25513 0.242938,-0.25314 0.597695,0.10512 0.198888,0.20085 0.334579,0.38891 0.301538,0.41792 -0.03304,0.029 -0.188848,-0.10491 -0.346237,-0.29759 z m 25.999488,-0.5183 c 0.09702,-0.0392 0.212949,-0.0344 0.25761,0.0107 0.04466,0.0451 -0.03472,0.0772 -0.176406,0.0713 -0.156575,-0.007 -0.188422,-0.0387 -0.0812,-0.082 z m 0.672025,-0.13573 c 0.09702,-0.0392 0.212948,-0.0344 0.257609,0.0107 0.04466,0.0451 -0.03472,0.0772 -0.176406,0.0713 -0.156575,-0.007 -0.188422,-0.0387 -0.0812,-0.082 z m -54.433961,-0.13573 c 0.09702,-0.0392 0.212947,-0.0344 0.25761,0.0107 0.04466,0.0451 -0.03472,0.0772 -0.176407,0.0713 -0.156575,-0.007 -0.188422,-0.0387 -0.0812,-0.082 z m 30.26629,-1.12886 c -0.07912,-0.14931 -0.113622,-0.27146 -0.07666,-0.27146 0.03696,0 0.131941,0.12215 0.211065,0.27146 0.07912,0.1493 0.113622,0.27146 0.07666,0.27146 -0.03696,0 -0.131941,-0.12216 -0.211065,-0.27146 z m -0.403214,-0.67866 c -0.07912,-0.1493 -0.113622,-0.27146 -0.07666,-0.27146 0.03696,0 0.131941,0.12216 0.211065,0.27146 0.07913,0.14931 0.113622,0.27146 0.07666,0.27146 -0.03696,0 -0.131941,-0.12215 -0.211065,-0.27146 z m -0.957979,-1.45911 c -0.167182,-0.21528 -0.162428,-0.22008 0.05075,-0.0512 0.223885,0.17731 0.295083,0.28877 0.184463,0.28877 -0.02791,0 -0.133753,-0.10689 -0.235209,-0.23753 z m -2.267738,-0.89956 c 0,-0.0282 0.105844,-0.13508 0.235209,-0.23753 0.213174,-0.16884 0.217928,-0.16403 0.05075,0.0512 -0.175583,0.2261 -0.285955,0.298 -0.285955,0.18629 z M 50.4766,973.7065 c -0.167182,-0.21528 -0.162428,-0.22008 0.05075,-0.0512 0.223885,0.17731 0.295083,0.28877 0.184462,0.28877 -0.02791,0 -0.133753,-0.10689 -0.235208,-0.23753 z"
         id="path4153"
         inkscape:connector-curvature="0" />
      <path
         style="fill:#6895ca"
         d="m 44.983146,1021.577 c -4.15297,-0.3318 -7.947155,-0.9108 -10.617982,-1.6203 -3.606942,-0.9581 -6.000203,-2.2801 -6.441375,-3.5581 -0.128166,-0.3713 -0.121215,-0.378 0.392216,-0.378 0.287483,0 0.560076,0.061 0.605763,0.1357 0.04569,0.075 0.205402,0.1358 0.354925,0.1358 0.149523,0 0.523967,0.2071 0.832098,0.4603 2.060052,1.6926 6.710561,2.9715 13.463104,3.7022 3.105297,0.336 11.72302,0.3367 14.918938,0 5.6817,-0.5966 10.121053,-1.6654 12.510436,-3.012 0.849865,-0.4789 2.104139,-1.7066 1.835884,-1.7969 -0.0846,-0.028 -0.897604,0.077 -1.806674,0.2343 -0.90907,0.1573 -2.670555,0.3565 -3.914412,0.4428 -4.617031,0.3201 -9.38358,-0.4803 -13.052057,-2.192 -1.427641,-0.6661 -3.704338,-2.0245 -3.795587,-2.2646 -0.03974,-0.1045 -0.150714,-0.1901 -0.246615,-0.1901 -0.292598,0 -2.510965,-1.9363 -3.618454,-3.1583 -4.298974,-4.7436 -6.08569,-10.0357 -5.459395,-16.17027 0.519374,-5.08728 2.969444,-11.0354 6.766667,-16.42769 0.77073,-1.09448 2.258227,-2.96306 2.309237,-2.90083 0.01875,0.0229 0.425308,0.62183 0.903464,1.33102 4.317539,6.40373 7.27326,12.58464 8.251593,17.25547 0.328515,1.56842 0.331527,4.11814 0.0062,5.20804 -0.760041,2.54588 -3.209275,4.87396 -5.852224,5.56266 -0.979292,0.2551 -2.880435,0.2877 -3.863433,0.066 -2.414757,-0.5442 -4.680595,-2.61424 -5.501287,-5.02583 -0.344479,-1.01225 -0.344969,-3.03875 -9.41e-4,-4.06418 0.694467,-2.07022 1.534782,-2.97436 3.404138,-3.66269 0.689263,-0.2538 1.026659,-0.29757 1.900105,-0.24651 1.800459,0.10526 3.228777,1.05684 4.015956,2.67553 0.313124,0.64389 0.367416,0.92283 0.359,1.84446 -0.0062,0.68514 -0.08901,1.26117 -0.224243,1.56091 l -0.21433,0.47506 -0.01097,-0.61621 c -0.01358,-0.76308 -0.33709,-2.0502 -0.6392,-2.5431 -0.386645,-0.63081 -1.028425,-1.26311 -1.589443,-1.56596 -0.667145,-0.36015 -2.157835,-0.38856 -2.921945,-0.0557 -1.72884,0.75313 -2.738506,2.68325 -2.404708,4.59694 0.33093,1.89726 1.327798,3.19618 3.085053,4.01982 0.912922,0.42786 1.18699,0.49066 2.376005,0.54406 2.276725,0.1022 3.826865,-0.47557 5.10612,-1.90314 0.988068,-1.10262 1.297387,-1.96281 1.378817,-3.83435 0.106839,-2.45555 -0.495723,-4.71908 -2.103494,-7.9018 -0.732776,-1.45059 -2.41202,-4.15317 -3.440038,-5.53641 -0.816235,-1.09822 -2.111144,-2.64561 -2.21398,-2.64561 -0.148221,0 -1.817933,2.28024 -2.683512,3.66474 -3.214737,5.14198 -4.800749,10.66189 -4.32805,15.06321 0.39611,3.68816 1.784179,6.60616 4.501563,9.46306 3.436024,3.6124 7.976798,6.1267 12.864813,7.1234 1.337937,0.2729 1.933789,0.3133 4.62701,0.3139 2.627276,7e-4 3.359525,-0.046 4.878092,-0.313 6.180806,-1.0851 10.59426,-2.8885 14.61741,-5.9727 0.661066,-0.5068 1.218326,-1.0098 1.238355,-1.1178 0.07399,-0.3989 -2.988416,-2.0306 -5.175694,-2.7578 -4.275114,-1.4213 -8.465932,-1.9571 -14.079709,-1.8004 -1.700222,0.048 -3.393723,0.1238 -3.763336,0.1697 l -0.672024,0.083 1.008036,-0.71 c 5.280651,-3.7195 9.313821,-8.86316 11.616879,-14.81549 0.648501,-1.67607 1.420391,-4.47579 1.420391,-5.1519 0,-0.37929 -0.02688,-0.40003 -0.436816,-0.33691 -0.240249,0.037 -0.769468,0.10481 -1.176042,0.1507 -1.536545,0.17341 -3.915459,0.9554 -5.811499,1.91032 -2.404887,1.21119 -5.816333,3.74787 -7.528182,5.5978 -0.351133,0.37946 -0.638423,0.65293 -0.638423,0.60771 0,-0.0452 0.275928,-0.59341 0.613172,-1.2182 2.109369,-3.90787 6.512551,-7.31879 11.626492,-9.00643 1.941587,-0.64075 4.41612,-1.21859 5.218662,-1.21865 l 0.321707,-2e-5 -0.07799,2.0699 c -0.08731,2.31706 -0.322291,3.83924 -0.9167,5.93823 -1.32099,4.66472 -3.77634,8.76227 -7.301034,12.18415 l -1.529588,1.48497 0.558805,-0.10381 c 1.891332,-0.35132 5.366602,-0.26095 8.085475,0.21023 4.298589,0.745 9.118616,2.5088 13.474085,4.9305 0.757708,0.4212 1.37765,0.828 1.37765,0.9039 0,0.3076 -2.187921,2.2407 -3.64903,3.224 -1.861087,1.2525 -5.058708,2.9458 -7.358549,3.8967 -1.567454,0.6481 -5.239038,1.906 -6.129038,2.0998 -0.37876,0.082 -0.403232,0.1267 -0.403505,0.7288 -4.03e-4,0.8473 -0.39116,1.3893 -1.545396,2.1433 -2.369384,1.5479 -6.662176,2.6416 -13.306049,3.3901 -2.299856,0.259 -11.921353,0.3855 -14.381318,0.1889 z"
         id="path4151"
         inkscape:connector-curvature="0" />
      <path
         style="fill:#87c66f"
         d="m 32.281889,1016.6226 c -0.221768,-0.03 -1.008037,-0.1219 -1.747263,-0.2049 -0.739227,-0.083 -1.465013,-0.2018 -1.612858,-0.2639 -0.147846,-0.062 -0.601462,-0.1508 -1.008037,-0.1971 -0.954818,-0.1088 -3.446984,-0.7692 -5.241788,-1.389 -5.362539,-1.8521 -10.851867,-4.93 -13.4229178,-7.5264 -0.7972051,-0.8051 -0.9823898,-1.0848 -0.848219,-1.2811 0.1359067,-0.1988 3.0689578,-1.6853 5.0644048,-2.5666 3.31441,-1.4638 6.840181,-2.5925 10.013161,-3.20538 1.231707,-0.23792 2.064352,-0.30107 4.099347,-0.3109 1.404531,-0.007 2.899626,0.0376 3.322435,0.0987 l 0.768742,0.11105 -1.710141,-1.73982 c -0.940579,-0.95691 -1.981904,-2.1063 -2.314059,-2.55421 -0.332155,-0.44792 -0.635634,-0.84493 -0.674399,-0.88226 -0.03877,-0.0373 -0.334943,-0.49541 -0.658169,-1.01798 -0.323227,-0.52256 -0.688495,-1.10281 -0.811707,-1.28944 -0.461796,-0.6995 -1.61151,-3.23804 -2.066527,-4.56285 -0.926571,-2.69778 -1.485972,-6.00487 -1.409275,-8.33143 l 0.0425,-1.28927 0.537619,0.0413 c 2.016659,0.15504 4.964341,0.88149 7.327407,1.80581 3.409266,1.33355 6.028293,3.24278 7.884681,5.74782 0.718472,0.96951 1.685485,2.8183 1.848799,3.53462 0.08718,0.38238 0.04112,0.35682 -0.755748,-0.41952 -1.457115,-1.41958 -1.748927,-1.67126 -3.267869,-2.81853 -2.367258,-1.788 -4.396974,-2.91212 -6.675238,-3.69696 -2.238783,-0.77123 -4.816376,-1.13043 -4.816376,-0.67119 0,0.31462 0.510488,2.44144 0.825391,3.43879 0.935525,2.96297 2.759589,6.62489 4.349195,8.73128 0.147845,0.19591 0.389774,0.52793 0.53762,0.73783 1.547499,2.19698 4.231435,4.82525 6.97381,6.82914 l 1.328805,0.971 -1.396008,-0.1037 c -2.596879,-0.1929 -8.089396,-0.1116 -10.132324,0.15 -4.705966,0.6026 -8.796221,1.9075 -11.351209,3.6214 l -0.852871,0.572 0.322632,0.246 c 0.338072,0.2577 1.669011,1.0296 3.307129,1.9181 4.044322,2.1936 10.428223,4.283 15.075762,4.934 5.45224,0.7637 11.627522,0.055 15.921708,-1.8272 0.724186,-0.3174 1.164899,-0.3652 1.164899,-0.1264 0,0.087 -0.03736,0.1207 -0.08302,0.075 -0.04566,-0.046 -0.53126,0.2216 -1.079103,0.5949 -2.794919,1.9046 -6.324923,3.2761 -9.931272,3.8586 -1.256493,0.203 -5.944554,0.3802 -6.849648,0.259 z"
         id="path4149"
         inkscape:connector-curvature="0" />
    </g>
  </g>
</svg>
